<svg width="8" height="16" viewBox="0 0 8 16" fill="none" xmlns="http://www.w3.org/2000/svg">
<path d="M7 -6.10352e-05L1 -6.10352e-05C0.447812 -6.10352e-05 0 0.447751 0 0.999939L0 14.9999C0 15.5521 0.447812 15.9999 1 15.9999H7C7.55219 15.9999 8 15.5521 8 14.9999L8 0.999939C8 0.447751 7.55219 -6.10352e-05 7 -6.10352e-05ZM1 14.9999L1 0.999939L7 0.999939V2.99994L5.25 2.99994C5.11187 2.99994 5 3.11181 5 3.24994V3.74994C5 3.88806 5.11187 3.99994 5.25 3.99994L7 3.99994L7 5.99994H5.25C5.11187 5.99994 5 6.11181 5 6.24994V6.74994C5 6.88806 5.11187 6.99994 5.25 6.99994H7V8.99994H5.25C5.11187 8.99994 5 9.11181 5 9.24994V9.74994C5 9.88806 5.11187 9.99994 5.25 9.99994H7V11.9999H5.25C5.11187 11.9999 5 12.1118 5 12.2499V12.7499C5 12.8881 5.11187 12.9999 5.25 12.9999H7V14.9999H1Z" fill="#212121"/>
</svg>
