<svg width="16" height="16" viewBox="0 0 16 16" fill="none" xmlns="http://www.w3.org/2000/svg">
<path d="M14 1.99994L11.9747 1.99994C11.0609 0.793064 9.62719 -6.10352e-05 8 -6.10352e-05C6.37281 -6.10352e-05 4.93906 0.793064 4.02531 1.99994L2 1.99994C0.897187 1.99994 0 2.89713 0 3.99994L0 13.9999C0 15.1028 0.897187 15.9999 2 15.9999L14 15.9999C15.1028 15.9999 16 15.1028 16 13.9999L16 3.99994C16 2.89713 15.1028 1.99994 14 1.99994ZM8 0.999939C10.2091 0.999939 12 2.79088 12 4.99994C12 7.209 10.2091 8.99994 8 8.99994C5.79094 8.99994 4 7.209 4 4.99994C4 2.79088 5.79094 0.999939 8 0.999939ZM15 13.9999C15 14.5521 14.5522 14.9999 14 14.9999L2 14.9999C1.44781 14.9999 1 14.5521 1 13.9999L1 3.99994C1 3.44775 1.44781 2.99994 2 2.99994L3.42375 2.99994C3.15437 3.61338 3 4.28806 3 4.99994C3 7.75681 5.24312 9.99994 8 9.99994C10.7569 9.99994 13 7.75681 13 4.99994C13 4.28806 12.8456 3.61338 12.5762 2.99994H14C14.5522 2.99994 15 3.44775 15 3.99994L15 13.9999ZM8 7.99994C8.82719 7.99994 9.5 7.32713 9.5 6.49994C9.5 6.06494 9.31094 5.67619 9.01437 5.40213L9.95937 3.19681C10.0681 2.94338 9.95062 2.64931 9.69656 2.54056C9.44406 2.43181 9.14906 2.549 9.04031 2.80338L8.09469 5.00963C6.98656 4.93744 6.5 5.89525 6.5 6.49994C6.5 7.32713 7.17281 7.99994 8 7.99994ZM8 5.99994C8.27625 5.99994 8.5 6.22369 8.5 6.49994C8.5 6.77619 8.27625 6.99994 8 6.99994C7.72375 6.99994 7.5 6.77619 7.5 6.49994C7.5 6.22369 7.72375 5.99994 8 5.99994Z" fill="#212121"/>
</svg>
