<svg width="25" height="25" viewBox="0 0 25 25" fill="none" xmlns="http://www.w3.org/2000/svg">
<path d="M15.3098 12.0804C15.3098 13.6584 14.0306 14.9376 12.4526 14.9376C10.8747 14.9376 9.59549 13.6584 9.59549 12.0804C9.59549 10.5025 10.8747 9.2233 12.4526 9.2233C14.0306 9.2233 15.3098 10.5025 15.3098 12.0804Z" fill="#212121"/>
<path fill-rule="evenodd" clip-rule="evenodd" d="M12.4526 24.0804C18.498 24.0804 23.4993 19.6101 24.3311 13.7947H17.3029C16.5969 15.7922 14.6919 17.2233 12.4526 17.2233C10.2134 17.2233 8.30842 15.7922 7.60242 13.7947H0.57416C1.40598 19.6101 6.40726 24.0804 12.4526 24.0804ZM7.60242 10.3662H0.57416C1.40598 4.5508 6.40726 0.0804443 12.4526 0.0804443C18.498 0.0804443 23.4993 4.5508 24.3311 10.3662H17.3029C16.5969 8.36869 14.6919 6.93759 12.4526 6.93759C10.2134 6.93759 8.30842 8.36869 7.60242 10.3662ZM15.3098 12.0804C15.3098 13.6584 14.0306 14.9376 12.4526 14.9376C10.8747 14.9376 9.59549 13.6584 9.59549 12.0804C9.59549 10.5025 10.8747 9.2233 12.4526 9.2233C14.0306 9.2233 15.3098 10.5025 15.3098 12.0804Z" fill="#212121"/>
</svg>
