<svg width="10" height="17" viewBox="0 0 10 17" fill="none" xmlns="http://www.w3.org/2000/svg">
<path d="M9.46997 11.1887L9.21747 10.9361C9.05011 10.7688 8.77875 10.7688 8.61136 10.9361L5.63121 13.9336L5.63121 0.509016C5.63121 0.272337 5.43931 0.0804443 5.20263 0.0804443L4.84549 0.0804443C4.60881 0.0804443 4.41692 0.272337 4.41692 0.509016L4.41692 13.9336L1.43676 10.9361C1.26941 10.7688 0.998049 10.7688 0.830656 10.9361L0.578155 11.1887C0.410797 11.356 0.410797 11.6274 0.578155 11.7947L4.72102 15.9549C4.88838 16.1223 5.15974 16.1223 5.32713 15.9549L9.47 11.7947C9.63736 11.6274 9.63736 11.356 9.46997 11.1887V11.1887Z" fill="#212121"/>
</svg>
